<svg width="120" height="26" viewBox="0 0 120 26" fill="none" xmlns="http://www.w3.org/2000/svg">
<g clip-path="url(#clip0_1_361)">
<g clip-path="url(#clip1_1_361)">
<path d="M13.0005 5C10.8295 5 10.5565 5.01 9.70349 5.048C8.85049 5.088 8.26949 5.222 7.76049 5.42C7.22658 5.62082 6.74298 5.93583 6.34349 6.343C5.93656 6.7427 5.6216 7.22624 5.42049 7.76C5.22249 8.268 5.08749 8.85 5.04849 9.7C5.01049 10.555 5.00049 10.827 5.00049 13.001C5.00049 15.173 5.01049 15.445 5.04849 16.298C5.08849 17.15 5.22249 17.731 5.42049 18.24C5.62549 18.766 5.89849 19.212 6.34349 19.657C6.78749 20.102 7.23349 20.376 7.75949 20.58C8.26949 20.778 8.84949 20.913 9.70149 20.952C10.5555 20.99 10.8275 21 13.0005 21C15.1735 21 15.4445 20.99 16.2985 20.952C17.1495 20.912 17.7325 20.778 18.2415 20.58C18.7751 20.3791 19.2583 20.0641 19.6575 19.657C20.1025 19.212 20.3755 18.766 20.5805 18.24C20.7775 17.731 20.9125 17.15 20.9525 16.298C20.9905 15.445 21.0005 15.173 21.0005 13C21.0005 10.827 20.9905 10.555 20.9525 9.701C20.9125 8.85 20.7775 8.268 20.5805 7.76C20.3794 7.22623 20.0644 6.74268 19.6575 6.343C19.2581 5.93568 18.7745 5.62065 18.2405 5.42C17.7305 5.222 17.1485 5.087 16.2975 5.048C15.4435 5.01 15.1725 5 12.9985 5H13.0015H13.0005ZM12.2835 6.442H13.0015C15.1375 6.442 15.3905 6.449 16.2335 6.488C17.0135 6.523 17.4375 6.654 17.7195 6.763C18.0925 6.908 18.3595 7.082 18.6395 7.362C18.9195 7.642 19.0925 7.908 19.2375 8.282C19.3475 8.563 19.4775 8.987 19.5125 9.767C19.5515 10.61 19.5595 10.863 19.5595 12.998C19.5595 15.133 19.5515 15.387 19.5125 16.23C19.4775 17.01 19.3465 17.433 19.2375 17.715C19.1092 18.0624 18.9045 18.3764 18.6385 18.634C18.3585 18.914 18.0925 19.087 17.7185 19.232C17.4385 19.342 17.0145 19.472 16.2335 19.508C15.3905 19.546 15.1375 19.555 13.0015 19.555C10.8655 19.555 10.6115 19.546 9.76849 19.508C8.98849 19.472 8.56549 19.342 8.28349 19.232C7.93599 19.1039 7.62161 18.8996 7.36349 18.634C7.09724 18.376 6.89221 18.0617 6.76349 17.714C6.65449 17.433 6.52349 17.009 6.48849 16.229C6.45049 15.386 6.44249 15.133 6.44249 12.996C6.44249 10.86 6.45049 10.608 6.48849 9.765C6.52449 8.985 6.65449 8.561 6.76449 8.279C6.90949 7.906 7.08349 7.639 7.36349 7.359C7.64349 7.079 7.90949 6.906 8.28349 6.761C8.56549 6.651 8.98849 6.521 9.76849 6.485C10.5065 6.451 10.7925 6.441 12.2835 6.44V6.442ZM17.2715 7.77C17.1454 7.77 17.0206 7.79483 16.9041 7.84308C16.7876 7.89132 16.6818 7.96203 16.5927 8.05118C16.5035 8.14032 16.4328 8.24615 16.3846 8.36262C16.3363 8.4791 16.3115 8.60393 16.3115 8.73C16.3115 8.85607 16.3363 8.9809 16.3846 9.09738C16.4328 9.21385 16.5035 9.31968 16.5927 9.40882C16.6818 9.49797 16.7876 9.56868 16.9041 9.61692C17.0206 9.66517 17.1454 9.69 17.2715 9.69C17.5261 9.69 17.7703 9.58886 17.9503 9.40882C18.1303 9.22879 18.2315 8.98461 18.2315 8.73C18.2315 8.47539 18.1303 8.23121 17.9503 8.05118C17.7703 7.87114 17.5261 7.77 17.2715 7.77ZM13.0015 8.892C12.4566 8.8835 11.9154 8.98349 11.4095 9.18614C10.9036 9.3888 10.443 9.69007 10.0546 10.0724C9.66627 10.4548 9.35785 10.9106 9.14733 11.4133C8.93681 11.916 8.82839 12.4555 8.82839 13.0005C8.82839 13.5455 8.93681 14.085 9.14733 14.5877C9.35785 15.0904 9.66627 15.5462 10.0546 15.9286C10.443 16.3109 10.9036 16.6122 11.4095 16.8149C11.9154 17.0175 12.4566 17.1175 13.0015 17.109C14.08 17.0922 15.1087 16.6519 15.8655 15.8833C16.6222 15.1146 17.0464 14.0792 17.0464 13.0005C17.0464 11.9218 16.6222 10.8864 15.8655 10.1177C15.1087 9.34909 14.08 8.90883 13.0015 8.892ZM13.0015 10.333C13.7088 10.333 14.3872 10.614 14.8873 11.1141C15.3875 11.6143 15.6685 12.2927 15.6685 13C15.6685 13.7073 15.3875 14.3857 14.8873 14.8859C14.3872 15.386 13.7088 15.667 13.0015 15.667C12.2942 15.667 11.6158 15.386 11.1156 14.8859C10.6155 14.3857 10.3345 13.7073 10.3345 13C10.3345 12.2927 10.6155 11.6143 11.1156 11.1141C11.6158 10.614 12.2942 10.333 13.0015 10.333Z" fill="white"/>
</g>
<g clip-path="url(#clip2_1_361)">
<path d="M45.0515 6.99902H45.1405C45.9625 7.00202 50.1275 7.03202 51.2505 7.33402C51.59 7.42619 51.8993 7.60585 52.1476 7.85503C52.396 8.10422 52.5745 8.41421 52.6655 8.75402C52.7665 9.13402 52.8375 9.63702 52.8855 10.156L52.8955 10.26L52.9175 10.52L52.9255 10.624C52.9905 11.538 52.9985 12.394 52.9995 12.581V12.656C52.9985 12.85 52.9895 13.764 52.9175 14.716L52.9095 14.821L52.9005 14.925C52.8505 15.497 52.7765 16.065 52.6655 16.483C52.5748 16.823 52.3963 17.1331 52.148 17.3823C51.8996 17.6316 51.5901 17.8111 51.2505 17.903C50.0905 18.215 45.6815 18.237 45.0705 18.238H44.9285C44.6195 18.238 43.3415 18.232 42.0015 18.186L41.8315 18.18L41.7445 18.176L41.5735 18.169L41.4025 18.162C40.2925 18.113 39.2355 18.034 38.7485 17.902C38.409 17.8102 38.0996 17.6308 37.8512 17.3818C37.6029 17.1327 37.4243 16.8228 37.3335 16.483C37.2225 16.066 37.1485 15.497 37.0985 14.925L37.0905 14.82L37.0825 14.716C37.0331 14.0384 37.0058 13.3594 37.0005 12.68L37.0005 12.557C37.0025 12.342 37.0105 11.599 37.0645 10.779L37.0715 10.676L37.0745 10.624L37.0825 10.52L37.1045 10.26L37.1145 10.156C37.1625 9.63702 37.2335 9.13302 37.3345 8.75402C37.4252 8.41407 37.6037 8.10393 37.852 7.85471C38.1004 7.60548 38.4099 7.42592 38.7495 7.33402C39.2365 7.20402 40.2935 7.12402 41.4035 7.07402L41.5735 7.06702L41.7455 7.06102L41.8315 7.05802L42.0025 7.05102C42.9542 7.0204 43.9063 7.0034 44.8585 7.00002H45.0515V6.99902ZM43.4005 10.209V15.027L47.5575 12.619L43.4005 10.209Z" fill="white"/>
</g>
<g clip-path="url(#clip3_1_361)">
<path d="M82.0025 13.05C82.0025 8.604 78.4205 5 74.0025 5C69.5825 5.001 66.0005 8.604 66.0005 13.051C66.0005 17.068 68.9265 20.398 72.7505 21.002V15.377H70.7205V13.051H72.7525V11.276C72.7525 9.259 73.9475 8.145 75.7745 8.145C76.6505 8.145 77.5655 8.302 77.5655 8.302V10.282H76.5565C75.5635 10.282 75.2535 10.903 75.2535 11.54V13.05H77.4715L77.1175 15.376H75.2525V21.001C79.0765 20.397 82.0025 17.067 82.0025 13.05Z" fill="white"/>
</g>
<g clip-path="url(#clip4_1_361)">
<path d="M103.026 19.0007C109.064 19.0007 112.367 13.9977 112.367 9.66669C112.367 9.52669 112.367 9.38469 112.361 9.24469C113.005 8.77918 113.56 8.20284 114 7.54269C113.4 7.80754 112.763 7.9821 112.111 8.06069C112.798 7.65033 113.312 7.00466 113.558 6.24369C112.913 6.62582 112.208 6.89407 111.471 7.03669C110.977 6.50972 110.322 6.16061 109.609 6.04345C108.895 5.92629 108.163 6.04761 107.526 6.38863C106.888 6.72965 106.381 7.27132 106.083 7.92975C105.785 8.58818 105.712 9.32663 105.875 10.0307C104.57 9.96524 103.293 9.62616 102.128 9.03544C100.962 8.44471 99.9332 7.61554 99.1085 6.60169C98.6898 7.32478 98.5621 8.18009 98.7511 8.99396C98.9402 9.80782 99.4319 10.5192 100.126 10.9837C99.606 10.966 99.097 10.8263 98.6405 10.5757V10.6207C98.6414 11.3782 98.9038 12.1121 99.3834 12.6985C99.8629 13.2848 100.53 13.6876 101.272 13.8387C100.991 13.9163 100.7 13.955 100.407 13.9537C100.201 13.9543 99.9959 13.9352 99.7935 13.8967C100.003 14.5487 100.412 15.1189 100.962 15.5272C101.512 15.9355 102.176 16.1615 102.86 16.1737C101.697 17.0875 100.26 17.5831 98.7805 17.5807C98.5198 17.5818 98.2593 17.5668 98.0005 17.5357C99.502 18.493 101.246 19.0012 103.026 19.0007Z" fill="white"/>
</g>
</g>
<defs>
<clipPath id="clip0_1_361">
<rect width="120" height="26.0003" fill="white" transform="translate(0.000488281)"/>
</clipPath>
<clipPath id="clip1_1_361">
<rect width="16.0006" height="16.0003" fill="white" transform="translate(5.00049 5)"/>
</clipPath>
<clipPath id="clip2_1_361">
<rect width="16" height="16" fill="white" transform="translate(36.5005 5)"/>
</clipPath>
<clipPath id="clip3_1_361">
<rect width="16" height="16" fill="white" transform="translate(66.5005 5)"/>
</clipPath>
<clipPath id="clip4_1_361">
<rect width="16" height="16" fill="white" transform="translate(98.5005 5)"/>
</clipPath>
</defs>
</svg>
